<?xml version="1.0" encoding="UTF-8"?>
<svg version="1.1" xmlns="http://www.w3.org/2000/svg" width="493" height="506">
<path d="M0 0 C0.96554306 -0.00686325 1.93108612 -0.0137265 2.92588806 -0.02079773 C6.09364859 -0.03898399 9.26090978 -0.03523874 12.42871094 -0.02954102 C14.64915119 -0.03410774 16.86959004 -0.03941477 19.09002686 -0.04542542 C23.73667147 -0.0543413 28.38314408 -0.05195185 33.02978516 -0.04199219 C38.95521327 -0.03052316 44.88004359 -0.05069063 50.80539322 -0.07990932 C55.39021517 -0.098348 59.97489602 -0.09796329 64.55974579 -0.0922718 C66.74280382 -0.09211943 68.92587193 -0.09809382 71.10889435 -0.11056328 C92.84370669 -0.21720618 110.61324613 3.86789503 126.91308594 19.40405273 C138.32632466 31.34583508 143.59709998 44.44246365 148.16308594 60.02905273 C148.63299174 61.60652028 149.10371036 63.18374591 149.57519531 64.76074219 C150.54612975 68.01491273 151.51021578 71.27100833 152.46972656 74.52856445 C153.64230484 78.50240095 154.83815321 82.46867287 156.04510498 86.43218994 C156.95839737 89.43440343 157.8630649 92.43917366 158.76599121 95.44451904 C159.18832935 96.8458196 159.61341689 98.24629531 160.04162598 99.64581299 C164.78904829 115.19995508 167.50291386 130.30260443 167.35058594 146.59155273 C167.34721222 147.30161469 167.3438385 148.01167664 167.34036255 148.74325562 C167.12376004 180.45714112 157.45086005 212.68666144 136.91308594 237.40405273 C136.42549805 237.99412109 135.93791016 238.58418945 135.43554688 239.19213867 C133.77443774 241.19086349 132.09799641 243.17535805 130.41308594 245.15405273 C129.89117676 245.76877441 129.36926758 246.38349609 128.83154297 247.0168457 C113.63540611 264.47473316 93.42463075 277.28593569 71.91308594 285.40405273 C71.00816406 285.75081055 70.10324219 286.09756836 69.17089844 286.45483398 C60.02340827 289.73627436 50.46948395 291.70617518 40.91308594 293.40405273 C39.83397949 293.60724121 38.75487305 293.81042969 37.64306641 294.01977539 C34.24588742 294.36976621 31.35709606 294.20112536 27.99191284 293.6998291 C14.58800968 291.75800256 -0.16725554 290.63677645 -11.53515625 299.07983398 C-21.4244909 307.31795221 -30.11591305 317.04377651 -38.2951355 326.95666504 C-43.99720269 333.78124074 -50.36567496 338.8803027 -58.89941406 341.71655273 C-59.79273438 342.02206055 -60.68605469 342.32756836 -61.60644531 342.64233398 C-73.28193242 346.22771979 -87.3260298 345.88564184 -98.28613281 340.27905273 C-98.98351562 339.90780273 -99.68089844 339.53655273 -100.39941406 339.15405273 C-102.79086965 337.91297798 -103.85057413 337.40405273 -106.58691406 337.40405273 C-109.41860417 338.53672878 -112.0719235 339.87752284 -114.73144531 341.36889648 C-125.75346355 346.21273534 -139.3686081 346.08831512 -150.64941406 342.27905273 C-161.6335928 337.73387533 -169.02237128 330.87559113 -177.08691406 322.40405273 C-172.8987459 317.40504027 -168.53256955 312.71473315 -163.90405273 308.12353516 C-163.21227936 307.43322205 -162.52050598 306.74290894 -161.80776978 306.03167725 C-160.31769399 304.54538393 -158.82646489 303.06024614 -157.33418846 301.57616234 C-154.97449267 299.22929658 -152.61799343 296.87926263 -150.26228333 294.52839661 C-145.26913177 289.54663096 -140.27204934 284.56881983 -135.27441406 279.59155273 C-129.46483417 273.80555969 -123.65686925 268.01796468 -117.85308266 262.22616005 C-115.5278768 259.90745122 -113.19968846 257.59176527 -110.87138367 255.27616882 C-109.45504335 253.8634588 -108.03884199 252.45060945 -106.62280273 251.03759766 C-105.97192184 250.39188309 -105.32104095 249.74616852 -104.6504364 249.08088684 C-104.06032776 248.49084869 -103.47021912 247.90081055 -102.86222839 247.29289246 C-102.34736468 246.78024936 -101.83250097 246.26760626 -101.30203533 245.73942852 C-99.97066686 244.3975555 -99.97066686 244.3975555 -99.08691406 242.40405273 C-98.42691406 242.40405273 -97.76691406 242.40405273 -97.08691406 242.40405273 C-97.08691406 241.74405273 -97.08691406 241.08405273 -97.08691406 240.40405273 C-96.42691406 240.40405273 -95.76691406 240.40405273 -95.08691406 240.40405273 C-95.08691406 239.74405273 -95.08691406 239.08405273 -95.08691406 238.40405273 C-93.65403463 237.20443275 -92.21717727 236.00904246 -90.75488281 234.84545898 C-88.1826888 232.62264964 -86.19251751 230.0670218 -84.08691406 227.40405273 C-85.54066159 224.36439882 -87.22354381 221.56220267 -89.02441406 218.71655273 C-92.28234025 213.3318141 -95.08691406 207.79935675 -95.08691406 201.40405273 C-95.92222656 201.25709961 -95.92222656 201.25709961 -96.77441406 201.10717773 C-109.6066823 198.5927468 -120.51386261 191.11140538 -128.08691406 180.40405273 C-130.86418782 175.54702329 -133.56309019 170.69930249 -134.81347656 165.22045898 C-135.8752641 162.10119121 -135.8752641 162.10119121 -139.24707031 160.75170898 C-140.54187226 160.30557689 -141.84317772 159.87800449 -143.14941406 159.46655273 C-149.80961594 157.0893803 -154.84773982 154.24842159 -160.08691406 149.40405273 C-160.70953125 148.86006836 -161.33214844 148.31608398 -161.97363281 147.75561523 C-171.55114716 138.90524406 -176.82539217 126.77126905 -177.36425781 113.76342773 C-177.43377145 109.62736653 -177.38271872 105.53077019 -177.08691406 101.40405273 C-175.35720648 99.67434516 -173.13361789 100.28167589 -170.82790226 100.27497143 C-169.68833272 100.27934069 -169.68833272 100.27934069 -168.52574158 100.28379822 C-167.32389555 100.28251658 -167.32389555 100.28251658 -166.0977698 100.28120905 C-163.39222472 100.2795518 -160.6867406 100.2850796 -157.98120117 100.29052734 C-156.05004376 100.29080919 -154.11888623 100.29065153 -152.18772888 100.29008484 C-146.92761597 100.28979676 -141.66752565 100.29569516 -136.40741801 100.3026588 C-130.91675985 100.30889061 -125.42610122 100.309496 -119.93544006 100.3106842 C-109.53025715 100.31379803 -99.12508469 100.32201211 -88.71990639 100.33203369 C-76.8773046 100.34319324 -65.03470232 100.34870488 -53.19209659 100.35372913 C-28.82369528 100.36419468 -4.4553083 100.38254079 19.91308594 100.40405273 C19.58308594 87.86405273 19.25308594 75.32405273 18.91308594 62.40405273 C-3.85691406 62.07405273 -26.62691406 61.74405273 -50.08691406 61.40405273 C-50.08691406 41.42462977 -48.76823639 28.63462744 -35.39941406 14.15405273 C-25.42779189 4.74285119 -13.55506732 -0.06843558 0 0 Z " fill="#243038" transform="translate(245.0869140625,80.595947265625)"/>
<path d="M0 0 C0.98785492 -0.00262848 0.98785492 -0.00262848 1.9956665 -0.00531006 C4.18349811 -0.00972889 6.37124953 -0.00678983 8.55908203 -0.00341797 C10.07504288 -0.00409116 11.59100363 -0.00506132 13.10696411 -0.00631714 C16.2897443 -0.00779428 19.47249649 -0.00563963 22.65527344 -0.00097656 C26.73654355 0.00471105 30.81774776 0.00144798 34.89901543 -0.00454903 C38.03195695 -0.00816247 41.16488286 -0.00701227 44.29782486 -0.00442123 C45.80253227 -0.00375363 47.3072411 -0.00457459 48.81194687 -0.00690079 C50.91633608 -0.00943905 53.02061872 -0.00556969 55.125 0 C56.32333466 0.00079559 57.52166931 0.00159119 58.75631714 0.00241089 C61.69189453 0.12939453 61.69189453 0.12939453 64.69189453 1.12939453 C65.77728516 1.09587891 66.86267578 1.06236328 67.98095703 1.02783203 C80.63404858 1.37412717 94.16512093 12.36029699 102.69189453 21.12939453 C112.13010785 32.4722563 116.76034654 44.67933748 120.87939453 58.62939453 C121.35405617 60.2159182 121.82932736 61.80225961 122.30517578 63.38842773 C123.28621611 66.66462863 124.26128477 69.94253039 125.23242188 73.22167969 C126.41473713 77.20838244 127.61700952 81.18865612 128.82844543 85.16659546 C129.74069053 88.16642255 130.64421925 91.16882969 131.54580688 94.171875 C131.96763382 95.57234601 132.39229274 96.97196802 132.82015991 98.37060547 C137.567738 113.92495516 140.28172484 129.02769095 140.12939453 145.31689453 C140.12602081 146.02695648 140.12264709 146.73701843 140.11917114 147.46859741 C139.90256863 179.18248291 130.22966864 211.41200324 109.69189453 236.12939453 C109.20430664 236.71946289 108.71671875 237.30953125 108.21435547 237.91748047 C106.55324634 239.91620529 104.876805 241.90069984 103.19189453 243.87939453 C102.66998535 244.49411621 102.14807617 245.10883789 101.61035156 245.7421875 C86.41421471 263.20007496 66.20343934 276.01127749 44.69189453 284.12939453 C43.78697266 284.47615234 42.88205078 284.82291016 41.94970703 285.18017578 C26.14764708 290.84878178 10.4438585 293.17854217 -6.30810547 292.12939453 C-7.93565191 290.50184809 -7.43547624 288.6880113 -7.4375 286.44189453 C-7.44065216 285.44416016 -7.44380432 284.44642578 -7.447052 283.41845703 C-7.44502777 282.33306641 -7.44300354 281.24767578 -7.44091797 280.12939453 C-7.44187469 279.02337891 -7.44283142 277.91736328 -7.44381714 276.77783203 C-7.44449913 274.43408145 -7.44264351 272.090329 -7.43847656 269.74658203 C-7.43312861 266.14497666 -7.43842093 262.543496 -7.44482422 258.94189453 C-7.44416344 256.67106092 -7.44288229 254.40022739 -7.44091797 252.12939453 C-7.4429422 251.04400391 -7.44496643 249.95861328 -7.447052 248.84033203 C-7.44389984 247.84259766 -7.44074768 246.84486328 -7.4375 245.81689453 C-7.43670441 244.93388672 -7.43590881 244.05087891 -7.43508911 243.14111328 C-7.30810547 241.12939453 -7.30810547 241.12939453 -6.30810547 240.12939453 C-3.84957107 239.80039358 -1.39874887 239.51722537 1.06689453 239.25439453 C18.5527649 237.15307161 31.08426452 230.69092717 43.69189453 218.12939453 C44.24232422 217.60216797 44.79275391 217.07494141 45.35986328 216.53173828 C58.16158762 203.11223636 62.30680647 184.86656681 62.16723633 166.96704102 C61.84071211 155.56208093 59.16621524 146.0646045 53.64501953 136.02001953 C52.69189453 134.12939453 52.69189453 134.12939453 52.69189453 132.12939453 C52.03189453 132.12939453 51.37189453 132.12939453 50.69189453 132.12939453 C49.66228915 130.48085259 48.66803996 128.81014373 47.69189453 127.12939453 C36.2132823 112.52878756 20.94121241 103.9648236 2.65673828 101.42626953 C1.78915894 101.29784668 0.92157959 101.16942383 0.02770996 101.03710938 C-2.08297638 100.7259231 -4.19537916 100.42641514 -6.30810547 100.12939453 C-7.09017042 76.82344297 -7.41912534 53.52555234 -7.43148804 30.20743179 C-7.43311013 28.18608371 -7.43667436 26.16474677 -7.44067383 24.1434021 C-7.44652395 20.33792475 -7.44509662 16.53252888 -7.44091797 12.72705078 C-7.44389389 10.98915787 -7.44389389 10.98915787 -7.44692993 9.21615601 C-7.44381805 8.1628006 -7.44070618 7.10944519 -7.4375 6.02416992 C-7.43670441 5.09891006 -7.43590881 4.17365021 -7.43508911 3.22035217 C-7.16376564 -1.24735624 -3.7400552 0.00248638 0 0 Z " fill="#0C1820" transform="translate(272.30810546875,81.87060546875)"/>
<path d="M0 0 C1.13956954 0.00436926 1.13956954 0.00436926 2.30216068 0.00882679 C3.50400671 0.00754515 3.50400671 0.00754515 4.73013246 0.00623763 C7.43567753 0.00458038 10.14116165 0.01010817 12.84670109 0.01555592 C14.7778585 0.01583776 16.70901602 0.01568011 18.64017338 0.01511341 C23.90028629 0.01482533 29.16037661 0.02072373 34.42048424 0.02768737 C39.91114241 0.03391919 45.40180104 0.03452457 50.89246219 0.03571278 C61.29764511 0.0388266 71.70281757 0.04704068 82.10799587 0.05706227 C96.16298273 0.0703066 110.21797242 0.0757229 124.27296394 0.08156449 C146.42897986 0.09098054 168.58497372 0.11089911 190.74098819 0.12908131 C190.74098819 46.65908131 190.74098819 93.18908131 190.74098819 141.12908131 C169.74335454 141.12908131 154.64808008 134.98572618 139.74098819 120.12908131 C139.03071476 119.442011 138.32044132 118.75494068 137.58864444 118.04705006 C122.55212984 102.49103975 120.89341157 82.87270202 119.74098819 62.12908131 C78.65598819 61.63408131 78.65598819 61.63408131 36.74098819 61.12908131 C36.41098819 62.11908131 36.08098819 63.10908131 35.74098819 64.12908131 C35.37231632 63.68048756 35.00364444 63.23189381 34.62380069 62.76970631 C32.14974459 60.61388978 29.72162745 59.92163633 26.61598819 58.87908131 C20.3045979 56.53685424 15.69704055 53.63723895 10.74098819 49.12908131 C10.11579288 48.58380787 9.49059757 48.03853443 8.84645694 47.47673756 C-0.72182072 38.6172212 -5.99739141 26.49867539 -6.53635556 13.48845631 C-6.60586919 9.35239511 -6.55481646 5.25579876 -6.25901181 1.12908131 C-4.52930423 -0.60062627 -2.30571563 0.00670446 0 0 Z " fill="#3F494E" transform="translate(74.25901180505753,180.8709186911583)"/>
<path d="M0 0 C0.98160599 -0.00365067 1.96321198 -0.00730133 2.9745636 -0.01106262 C6.1904172 -0.01911102 9.40575805 -0.00561141 12.62158203 0.0090332 C14.86597697 0.00955224 17.11037236 0.00903284 19.35476685 0.00752258 C24.04338422 0.00761203 28.73182867 0.01799084 33.42041016 0.03613281 C39.43635178 0.05889766 45.45204275 0.05934697 51.46801567 0.05261517 C56.09530882 0.04927926 60.72254454 0.05589683 65.34982681 0.0657444 C67.56904933 0.06959733 69.78827822 0.07074423 72.00750351 0.06915855 C75.10017925 0.06878883 78.19252932 0.08137952 81.28515625 0.09765625 C82.20465561 0.09517883 83.12415497 0.09270142 84.07151794 0.09014893 C85.33293861 0.10077614 85.33293861 0.10077614 86.61984253 0.11161804 C87.71537351 0.11469735 87.71537351 0.11469735 88.83303642 0.11783886 C90.75439453 0.37231445 90.75439453 0.37231445 93.75439453 2.37231445 C91.81689453 2.93481445 91.81689453 2.93481445 89.75439453 3.37231445 C89.42439453 3.04231445 89.09439453 2.71231445 88.75439453 2.37231445 C86.63758136 2.27809705 84.51758695 2.25488684 82.39868164 2.25878906 C81.72453248 2.25866853 81.05038332 2.25854799 80.3558054 2.25842381 C78.16441662 2.25917272 75.97311193 2.26679991 73.78173828 2.2746582 C72.43249553 2.27612769 71.08325222 2.27714836 69.73400879 2.27770996 C64.71996203 2.28296206 59.70592747 2.29692315 54.69189453 2.30981445 C37.89283203 2.34075195 37.89283203 2.34075195 20.75439453 2.37231445 C20.75439453 35.04231445 20.75439453 67.71231445 20.75439453 101.37231445 C20.42439453 101.37231445 20.09439453 101.37231445 19.75439453 101.37231445 C19.42439453 88.50231445 19.09439453 75.63231445 18.75439453 62.37231445 C-4.01560547 62.04231445 -26.78560547 61.71231445 -50.24560547 61.37231445 C-50.24560547 41.39289148 -48.92692779 28.60288915 -35.55810547 14.12231445 C-25.51930722 4.64771223 -13.63556901 -0.11486886 0 0 Z " fill="#242F37" transform="translate(245.24560546875,80.627685546875)"/>
<path d="M0 0 C0.77251602 0.00359528 1.54503204 0.00719055 2.34095764 0.01089478 C3.55549622 0.01067574 3.55549622 0.01067574 4.79457092 0.01045227 C7.48380671 0.01115163 10.17297412 0.01894507 12.86219788 0.02676392 C14.72164878 0.02862802 16.58110018 0.03005196 18.44055176 0.03105164 C23.34458258 0.03487746 28.24858398 0.04470829 33.15260315 0.05575562 C38.15280255 0.06596836 43.15300669 0.07054896 48.1532135 0.07559204 C57.97158583 0.0863305 67.78993629 0.10340769 77.60829163 0.12442017 C76.23840471 3.1918495 74.67846042 5.30665802 72.31117249 7.68032837 C71.63964645 8.35815872 70.96812042 9.03598907 70.27624512 9.73435974 C69.5492189 10.45733749 68.82219269 11.18031525 68.07313538 11.92520142 C67.32044876 12.67980148 66.56776215 13.43440155 65.79226685 14.21186829 C64.19669902 15.80879687 62.59860363 17.40320344 60.9981842 18.99526978 C58.57231473 21.41051324 56.15719037 23.83612435 53.74305725 26.26309204 C52.18705677 27.81776945 50.63043522 29.37182556 49.07313538 30.92520142 C48.36027878 31.64210648 47.64742218 32.35901154 46.91296387 33.09764099 C34.0185099 45.87489223 34.0185099 45.87489223 25.79579163 48.49942017 C24.90247131 48.79590454 24.009151 49.09238892 23.08876038 49.39785767 C8.80041127 53.58310638 -4.77692488 51.61598008 -17.86827087 44.84317017 C-24.63101146 40.73295327 -29.97298149 34.81661551 -35.39170837 29.12442017 C-31.73016536 24.67119217 -27.88320847 20.40912622 -23.89170837 16.24942017 C-22.99452087 15.30324829 -22.09733337 14.35707642 -21.17295837 13.38223267 C-18.11699989 10.90141244 -16.26823867 10.38665604 -12.39170837 10.12442017 C-12.06170837 8.80442017 -11.73170837 7.48442017 -11.39170837 6.12442017 C-10.07170837 6.12442017 -8.75170837 6.12442017 -7.39170837 6.12442017 C-7.24733337 5.32004517 -7.10295837 4.51567017 -6.95420837 3.68692017 C-5.97091053 -0.79254777 -4.25213474 0.00835336 0 0 Z " fill="#0D1920" transform="translate(103.39170837402344,373.8755798339844)"/>
<path d="M0 0 C-4.23001744 5.0397532 -8.63345364 9.80582957 -13.26953125 14.47265625 C-13.94996994 15.15879501 -14.63040863 15.84493378 -15.33146667 16.55186462 C-16.76296205 17.99274719 -18.19587047 19.43222716 -19.63012695 20.87036133 C-21.80301485 23.05297241 -23.96498381 25.24603341 -26.12695312 27.43945312 C-27.52798349 28.84701375 -28.92965546 30.25393609 -30.33203125 31.66015625 C-30.96671829 32.30719009 -31.60140533 32.95422394 -32.25532532 33.62086487 C-38.20335509 39.54013199 -44.76902706 44.63919347 -52.8125 47.3125 C-53.70582031 47.61800781 -54.59914062 47.92351562 -55.51953125 48.23828125 C-70.40879328 52.81057431 -84.67536439 50.02315611 -98.1640625 42.98828125 C-98.76992187 42.66214844 -99.37578125 42.33601563 -100 42 C-99.34604248 41.34749268 -98.69208496 40.69498535 -98.01831055 40.02270508 C-95.00149429 37.00602101 -91.99918516 33.9750402 -88.99604797 30.94474792 C-85.78488417 27.70691237 -82.56850041 24.47428405 -79.35180664 21.24194336 C-77.65178921 19.53179219 -75.95356009 17.81986154 -74.25708008 16.10620117 C-71.80754279 13.63253983 -69.35172199 11.16527469 -66.89453125 8.69921875 C-66.13308304 7.92744797 -65.37163483 7.15567719 -64.58711243 6.36051941 C-63.88265488 5.6559108 -63.17819733 4.95130219 -62.45239258 4.2253418 C-61.52237175 3.28865913 -61.52237175 3.28865913 -60.57356262 2.33305359 C-59 1 -59 1 -57 1 C-57 0.34 -57 -0.32 -57 -1 C-49.68627101 -1.19381201 -42.37227542 -1.3711687 -35.05786133 -1.53710938 C-32.56981381 -1.59549521 -30.08185159 -1.65764277 -27.59399414 -1.72363281 C-24.01724783 -1.81785163 -20.44041261 -1.89852262 -16.86328125 -1.9765625 C-15.75165115 -2.00875885 -14.64002106 -2.0409552 -13.4947052 -2.0741272 C-12.45400375 -2.09429901 -11.41330231 -2.11447083 -10.34106445 -2.13525391 C-9.4283931 -2.15746002 -8.51572174 -2.17966614 -7.57539368 -2.20254517 C-4.72035958 -1.97800732 -2.59196564 -1.18644373 0 0 Z " fill="#3E484D" transform="translate(239,375)"/>
<path d="M0 0 C16.83 0 33.66 0 51 0 C52.98 3.63 54.96 7.26 57 11 C59.72896233 14.61986069 62.80479576 17.7882403 66 21 C66.59167969 21.62648438 67.18335938 22.25296875 67.79296875 22.8984375 C78.24221659 33.09395085 93.7617308 38.41797009 108 40 C108 40.33 108 40.66 108 41 C99.93182693 41.09352498 91.86388801 41.16417604 83.79530334 41.20724869 C80.04693171 41.22794279 76.29893639 41.25591766 72.55078125 41.30175781 C68.91971249 41.34587766 65.28900087 41.36927288 61.65768433 41.37950897 C59.6285217 41.39027472 57.59949868 41.42138881 55.57055664 41.45318604 C43.73140058 41.45598022 31.79598505 40.13646694 22 33 C21.30132812 32.5565625 20.60265625 32.113125 19.8828125 31.65625 C19.30273438 31.2746875 18.72265625 30.893125 18.125 30.5 C17.52945313 30.1184375 16.93390625 29.736875 16.3203125 29.34375 C15 28 15 28 15 24 C13.68 23.67 12.36 23.34 11 23 C11 22.34 11 21.68 11 21 C10.23171875 20.76410156 9.4634375 20.52820313 8.671875 20.28515625 C5.46546042 18.74288959 4.77573072 17.60289587 3.25 14.4375 C2.84265625 13.63183594 2.4353125 12.82617188 2.015625 11.99609375 C1 9 1 9 0 0 Z " fill="#0C1820" transform="translate(151,282)"/>
<path d="M0 0 C0.33 0 0.66 0 1 0 C1.25215081 7.31237348 1.25215081 7.31237348 0.02685547 10.65380859 C-1.12534779 14.40846809 -1.44390365 17.98142848 -1.625 21.875 C-1.66367188 22.56335938 -1.70234375 23.25171875 -1.7421875 23.9609375 C-1.83548166 25.64023246 -1.91878238 27.32007767 -2 29 C-1.13778336 28.99777939 -0.27556671 28.99555878 0.61277771 28.99327087 C8.72106036 28.97327005 16.82933477 28.95802694 24.93763638 28.94818783 C29.10662828 28.94295949 33.27559987 28.93586274 37.44458008 28.92456055 C41.46457686 28.91372992 45.48455405 28.90772279 49.50456429 28.90512276 C51.04162975 28.90326882 52.57869409 28.89964881 54.11575127 28.89426994 C56.26135487 28.88705716 58.40687655 28.88600916 60.55249023 28.88647461 C61.77604721 28.884254 62.99960419 28.88203339 64.26023865 28.87974548 C67 29 67 29 68 30 C68.08868299 32.95705321 68.11520296 35.89065056 68.09765625 38.84765625 C68.0962413 39.7340831 68.09482635 40.62050995 68.09336853 41.53379822 C68.08775215 44.37673254 68.07519691 47.21958931 68.0625 50.0625 C68.05748711 51.98502491 68.05292384 53.90755104 68.04882812 55.83007812 C68.03777741 60.55341549 68.02050183 65.27669458 68 70 C67.67 70 67.34 70 67 70 C66.67 57.13 66.34 44.26 66 31 C43.23 30.67 20.46 30.34 -3 30 C-3 7.94642857 -3 7.94642857 0 0 Z " fill="#7D5F3D" transform="translate(198,112)"/>
<path d="M0 0 C2.23867517 0.0042569 4.47735477 0.00657944 6.71603394 0.00706482 C11.38088325 0.01319828 16.04524635 0.03575707 20.70996094 0.0715332 C26.69441911 0.11706612 32.67844189 0.13157498 38.66305733 0.13527012 C43.27320658 0.13969039 47.88326427 0.15497526 52.49337387 0.17414665 C54.70142745 0.18302999 56.90949076 0.18975944 59.11755753 0.19430733 C62.19068251 0.20332227 65.26340838 0.22568209 68.33642578 0.25219727 C69.70624855 0.25319427 69.70624855 0.25319427 71.10374451 0.25421143 C72.35649422 0.26917412 72.35649422 0.26917412 73.634552 0.28443909 C74.72229007 0.29141485 74.72229007 0.29141485 75.83200264 0.29853153 C77.7421875 0.55859375 77.7421875 0.55859375 80.7421875 2.55859375 C78.8046875 3.12109375 78.8046875 3.12109375 76.7421875 3.55859375 C76.2471875 3.06359375 76.2471875 3.06359375 75.7421875 2.55859375 C72.76193956 2.43660838 69.80448593 2.37993077 66.82299805 2.36572266 C65.4179174 2.35345642 65.4179174 2.35345642 63.98445129 2.34094238 C60.86594284 2.3160152 57.74748043 2.29954571 54.62890625 2.28515625 C53.0309619 2.27717073 53.0309619 2.27717073 51.40073586 2.2690239 C45.75243473 2.24224913 40.10415594 2.22289594 34.45581055 2.20849609 C28.63987418 2.19191928 22.82451234 2.14721252 17.00879192 2.09612465 C12.52439281 2.06232655 8.04012723 2.05090435 3.55561256 2.04526901 C1.41355865 2.03858155 -0.72848727 2.02342537 -2.87041664 1.9993782 C-17.89769748 1.67194136 -17.89769748 1.67194136 -31.93815613 6.3855896 C-34.38661083 7.6237245 -36.55814355 8.13784027 -39.2578125 8.55859375 C-29.82995453 -2.16607611 -12.79647156 -0.12203557 0 0 Z " fill="#664521" transform="translate(258.2578125,80.44140625)"/>
<path d="M0 0 C0.66 0.33 1.32 0.66 2 1 C1.73225059 8.06858447 0.75986198 14.77349131 -0.9375 21.625 C-1.19225098 22.67300781 -1.19225098 22.67300781 -1.45214844 23.7421875 C-2.74460331 28.74460331 -2.74460331 28.74460331 -5 31 C-5.0809313 28.39521117 -5.14045434 25.79293347 -5.1875 23.1875 C-5.22520508 22.08051758 -5.22520508 22.08051758 -5.26367188 20.95117188 C-5.33925111 15.38350126 -5.33925111 15.38350126 -3.5625 13.375 C-3.046875 12.92125 -2.53125 12.4675 -2 12 C-1.20531949 9.04478923 -1.20531949 9.04478923 -0.8125 5.8125 C-0.65394531 4.72582031 -0.49539063 3.63914063 -0.33203125 2.51953125 C-0.22246094 1.68808594 -0.11289062 0.85664063 0 0 Z " fill="#4D3D27" transform="translate(409,244)"/>
<path d="M0 0 C1.38602656 0.02516506 2.77209818 0.04796348 4.15820312 0.06835938 C7.50249252 0.12662226 10.84437829 0.20837786 14.1875 0.3125 C14.1875 0.6425 14.1875 0.9725 14.1875 1.3125 C13.3718457 1.31660889 12.55619141 1.32071777 11.71582031 1.32495117 C8.62878349 1.35225655 5.54303349 1.40167713 2.45654297 1.46508789 C0.48817222 1.49912381 -1.48057389 1.50867471 -3.44921875 1.51757812 C-11.22085886 1.6951029 -17.21682364 2.74694086 -24.23535156 6.1496582 C-26.78020359 7.29792745 -29.06438532 7.87710294 -31.8125 8.3125 C-24.13834969 -0.63275824 -10.74278537 -0.34502947 0 0 Z " fill="#87663B" transform="translate(250.8125,80.6875)"/>
<path d="M0 0 C0.33 1.32 0.66 2.64 1 4 C0.195625 4.5775 -0.60875 5.155 -1.4375 5.75 C-3.97866739 7.98126893 -4.65120368 8.74456771 -5 12 C-5.99 12 -6.98 12 -8 12 C-8.0825 12.78375 -8.165 13.5675 -8.25 14.375 C-9 17 -9 17 -11.0625 18.3125 C-12.0215625 18.6528125 -12.0215625 18.6528125 -13 19 C-11.2056475 11.22447249 -5.57693684 5.42952882 0 0 Z " fill="#604D39" transform="translate(212,93)"/>
<path d="M0 0 C0.33 0 0.66 0 1 0 C2.09599874 8.38000387 2.11692784 16.6844987 2.0625 25.125 C2.05747139 26.47656083 2.05291091 27.82812348 2.04882812 29.1796875 C2.03713711 32.45317265 2.02075029 35.72656186 2 39 C1.67 39 1.34 39 1 39 C0.97494385 38.39937744 0.9498877 37.79875488 0.92407227 37.17993164 C0.8084472 34.47388563 0.68557064 31.76821717 0.5625 29.0625 C0.52318359 28.11697266 0.48386719 27.17144531 0.44335938 26.19726562 C0.40146484 25.29814453 0.35957031 24.39902344 0.31640625 23.47265625 C0.26141968 22.22367554 0.26141968 22.22367554 0.20532227 20.94946289 C0.20632897 18.99661142 0.20632897 18.99661142 -1 18 C-1.02172852 16.23413086 -1.02172852 16.23413086 -0.87890625 13.96484375 C-0.83056641 13.15595703 -0.78222656 12.34707031 -0.73242188 11.51367188 C-0.67634766 10.66353516 -0.62027344 9.81339844 -0.5625 8.9375 C-0.51029297 8.08349609 -0.45808594 7.22949219 -0.40429688 6.34960938 C-0.27421239 4.23278005 -0.13770029 2.11634756 0 0 Z " fill="#18150F" transform="translate(409,206)"/>
<path d="M0 0 C4.01018103 1.38952413 6.90032723 3.26698294 10.1875 5.9375 C11.04730469 6.62714844 11.90710938 7.31679687 12.79296875 8.02734375 C15 10 15 10 17 13 C14.69 12.67 12.38 12.34 10 12 C10 11.01 10 10.02 10 9 C9.236875 8.7525 8.47375 8.505 7.6875 8.25 C4.73063402 6.8747135 3.7942367 5.64863513 2 3 C1.34 2.67 0.68 2.34 0 2 C0 1.34 0 0.68 0 0 Z " fill="#594429" transform="translate(357,90)"/>
<path d="M0 0 C1.65 0 3.3 0 5 0 C0.59156563 5.29012124 -4.07559794 10.18808428 -9 15 C-11 11.25 -11 11.25 -11 9 C-9.02 9 -7.04 9 -5 9 C-5 8.34 -5 7.68 -5 7 C-4.34 7 -3.68 7 -3 7 C-2.67 6.01 -2.34 5.02 -2 4 C-1.34 4 -0.68 4 0 4 C0 2.68 0 1.36 0 0 Z " fill="#80684C" transform="translate(229,380)"/>
<path d="M0 0 C3.55970823 1.77985411 4.03562852 6.1406181 5.25 9.75 C5.54390625 10.56210938 5.8378125 11.37421875 6.140625 12.2109375 C8.17958352 18.22978622 8.17958352 18.22978622 7.296875 22.015625 C6 24 6 24 4 25 C4.03480469 24.3709375 4.06960938 23.741875 4.10546875 23.09375 C4.27403168 17.76395062 3.84634726 13.7859387 1.734375 8.89453125 C0.60031151 5.96888873 0.32401636 3.11055702 0 0 Z " fill="#58432C" transform="translate(384,118)"/>
<path d="M0 0 C-17.22536496 7.41058394 -17.22536496 7.41058394 -24 7 C-24 6.34 -24 5.68 -24 5 C-23.39414062 4.90203125 -22.78828125 4.8040625 -22.1640625 4.703125 C-16.4596534 3.68510738 -11.49159504 2.1337482 -6.2265625 -0.29296875 C-3.69918261 -1.09552271 -2.46208891 -0.88252959 0 0 Z " fill="#5F4728" transform="translate(324,363)"/>
<path d="M0 0 C1.65 0 3.3 0 5 0 C5 0.66 5 1.32 5 2 C5.78375 2.144375 6.5675 2.28875 7.375 2.4375 C10 3 10 3 12 4 C14.87910588 4.23274209 17.74146495 4.41972757 20.625 4.5625 C21.42679688 4.60568359 22.22859375 4.64886719 23.0546875 4.69335938 C25.0362511 4.79951457 27.01810271 4.90026855 29 5 C29 5.33 29 5.66 29 6 C18.23596845 6.43056126 9.07436764 6.4248203 -1 2 C-0.67 1.34 -0.34 0.68 0 0 Z " fill="#715A30" transform="translate(91,419)"/>
<path d="M0 0 C0.66 0 1.32 0 2 0 C2.433125 1.11375 2.433125 1.11375 2.875 2.25 C3.92846602 4.92356643 3.92846602 4.92356643 5.0625 7.125 C6 9 6 9 7 12 C7.680625 12.680625 8.36125 13.36125 9.0625 14.0625 C9.701875 14.701875 10.34125 15.34125 11 16 C11 16.66 11 17.32 11 18 C11.66 18.33 12.32 18.66 13 19 C12.01 19 11.02 19 10 19 C5.00251208 13.99115415 0 7.30435014 0 0 Z " fill="#7F6946" transform="translate(71,207)"/>
<path d="M0 0 C1.216875 -0.04125 2.43375 -0.0825 3.6875 -0.125 C4.71423828 -0.15980469 4.71423828 -0.15980469 5.76171875 -0.1953125 C8 0 8 0 10.28125 0.96875 C13.76305871 2.28943606 17.13371191 2.45602217 20.8125 2.625 C21.85180664 2.68300781 21.85180664 2.68300781 22.91210938 2.7421875 C24.60767015 2.83573568 26.30379712 2.91892364 28 3 C28 3.33 28 3.66 28 4 C8.46808511 4.57446809 8.46808511 4.57446809 0 1 C0 0.67 0 0.34 0 0 Z " fill="#9C7652" transform="translate(149,421)"/>
<path d="M0 0 C0.66 0.33 1.32 0.66 2 1 C2 2.32 2 3.64 2 5 C2.78375 4.814375 3.5675 4.62875 4.375 4.4375 C7 4 7 4 9 5 C9 5.66 9 6.32 9 7 C8.34 7 7.68 7 7 7 C7.33 7.99 7.66 8.98 8 10 C2.98886765 8.5682479 1.05530451 6.01554307 -2 2 C-1.34 2 -0.68 2 0 2 C0 1.34 0 0.68 0 0 Z " fill="#645A4B" transform="translate(85,225)"/>
<path d="M0 0 C3.61904978 0.69343107 7.18431683 1.50753128 10.75 2.4375 C11.71421875 2.68371094 12.6784375 2.92992187 13.671875 3.18359375 C16 4 16 4 17 6 C16.01 7.485 16.01 7.485 15 9 C15 8.01 15 7.02 15 6 C14.41992188 5.89042969 13.83984375 5.78085937 13.2421875 5.66796875 C8.40253723 4.6856635 4.34633884 3.45178089 0 1 C0 0.67 0 0.34 0 0 Z " fill="#755F39" transform="translate(135,276)"/>
<path d="M0 0 C1.98 0 3.96 0 6 0 C3.62999752 2.65845673 1.18015846 4.11161791 -2 5.6875 C-2.86625 6.12449219 -3.7325 6.56148438 -4.625 7.01171875 C-7 8 -7 8 -10 8 C-10 7.34 -10 6.68 -10 6 C-8.68 6 -7.36 6 -6 6 C-6 5.34 -6 4.68 -6 4 C-4.35 4 -2.7 4 -1 4 C-0.67 2.68 -0.34 1.36 0 0 Z " fill="#7C644D" transform="translate(192,415)"/>
<path d="M0 0 C0 3.20395416 -0.74335022 5.09399739 -2 8 C-3.32 8 -4.64 8 -6 8 C-6.33 9.32 -6.66 10.64 -7 12 C-8.65 12.33 -10.3 12.66 -12 13 C-8.19524578 8.43969176 -4.25030379 4.14910608 0 0 Z " fill="#5D482F" transform="translate(98,372)"/>
<path d="M0 0 C1.65 0 3.3 0 5 0 C5.226875 0.804375 5.45375 1.60875 5.6875 2.4375 C6.120625 3.283125 6.55375 4.12875 7 5 C9.54775306 5.89386164 9.54775306 5.89386164 12 6 C10.02 6.99 10.02 6.99 8 8 C6.66102417 7.04956626 5.32894573 6.08940853 4 5.125 C3.2575 4.59132813 2.515 4.05765625 1.75 3.5078125 C1.1725 3.01023437 0.595 2.51265625 0 2 C0 1.34 0 0.68 0 0 Z " fill="#57412A" transform="translate(78,411)"/>
<path d="M0 0 C1.98 0 3.96 0 6 0 C5.04578192 1.14926266 4.08647955 2.29430541 3.125 3.4375 C2.59132812 4.07558594 2.05765625 4.71367187 1.5078125 5.37109375 C0 7 0 7 -2 8 C-2.33 6.35 -2.66 4.7 -3 3 C-2.01 3 -1.02 3 0 3 C0 2.01 0 1.02 0 0 Z " fill="#6F5F4D" transform="translate(205,403)"/>
<path d="M0 0 C1.84187025 2.76280538 2.72248277 4.80707826 3.6875 7.9375 C3.95949219 8.79214844 4.23148437 9.64679688 4.51171875 10.52734375 C5.02075548 13.10510574 4.84888744 14.54449337 4 17 C3.67 16.01 3.34 15.02 3 14 C2.34 13.67 1.68 13.34 1 13 C0.5859375 10.05859375 0.5859375 10.05859375 0.375 6.4375 C0.30023438 5.23996094 0.22546875 4.04242188 0.1484375 2.80859375 C0.09945313 1.88175781 0.05046875 0.95492187 0 0 Z " fill="#6C4E32" transform="translate(392,140)"/>
<path d="M0 0 C3.82669043 3.42388092 5.72278474 6.00724943 7 11 C6.34 11.66 5.68 12.32 5 13 C3.23537317 9.91190305 3 8.76687864 3 5 C2.01 4.67 1.02 4.34 0 4 C0 2.68 0 1.36 0 0 Z " fill="#513F2A" transform="translate(377,107)"/>
<path d="M0 0 C0.33 1.32 0.66 2.64 1 4 C0.01 4 -0.98 4 -2 4 C-1.67 5.65 -1.34 7.3 -1 9 C-2.32 8.67 -3.64 8.34 -5 8 C-5 5 -5 5 -2.5 2.3125 C-1.675 1.549375 -0.85 0.78625 0 0 Z " fill="#624A2E" transform="translate(74,396)"/>
<path d="M0 0 C0.66 0 1.32 0 2 0 C2 0.66 2 1.32 2 2 C2.66 2 3.32 2 4 2 C4 3.98 4 5.96 4 8 C4.66 8.33 5.32 8.66 6 9 C5.34 9.66 4.68 10.32 4 11 C3.32880451 9.5437455 2.66318193 8.08492133 2 6.625 C1.62875 5.81289063 1.2575 5.00078125 0.875 4.1640625 C0 2 0 2 0 0 Z " fill="#5A422C" transform="translate(151,286)"/>
<path d="M0 0 C0.33 0 0.66 0 1 0 C1.1799928 5.21979128 0.97094808 9.07262981 -1 14 C-1.33 14 -1.66 14 -2 14 C-2.1799928 8.78020872 -1.97094808 4.92737019 0 0 Z " fill="#6A5438" transform="translate(198,112)"/>
<path d="M0 0 C0.33 1.32 0.66 2.64 1 4 C-1.68841859 6.25245881 -3.64641875 7.88213958 -7 9 C-5.44499019 5.18315774 -2.96404505 2.80804268 0 0 Z " fill="#6D5439" transform="translate(212,93)"/>
<path d="M0 0 C2.40034102 3.60051153 4.32187705 6.96144535 3.625 11.375 C3.41875 11.91125 3.2125 12.4475 3 13 C-0.36055646 8.51925805 -0.27429625 5.39449293 0 0 Z " fill="#674E2E" transform="translate(397,157)"/>
<path d="M0 0 C1.98 0 3.96 0 6 0 C4.63016497 3.16115776 4.0109362 3.9927092 1 6 C0.67 4.02 0.34 2.04 0 0 Z " fill="#695C4C" transform="translate(218,389)"/>
<path d="M0 0 C1.32 0 2.64 0 4 0 C2.60667426 3.36720387 1.0210714 4.9859524 -2 7 C-2 6.01 -2 5.02 -2 4 C-1.34 4 -0.68 4 0 4 C0 2.68 0 1.36 0 0 Z " fill="#766249" transform="translate(213,396)"/>
<path d="M0 0 C1.32 0.33 2.64 0.66 4 1 C2.35 2.98 0.7 4.96 -1 7 C-1.625 5.1875 -1.625 5.1875 -2 3 C-1.34 2.01 -0.68 1.02 0 0 Z " fill="#5F4B26" transform="translate(381,313)"/>
<path d="M0 0 C1.93719378 -0.05406122 3.87481921 -0.09282025 5.8125 -0.125 C6.89144531 -0.14820312 7.97039062 -0.17140625 9.08203125 -0.1953125 C12 0 12 0 15 2 C13.0625 2.5625 13.0625 2.5625 11 3 C10.67 2.67 10.34 2.34 10 2 C8.31816052 1.76712992 6.6287584 1.58735834 4.9375 1.4375 C4.01839844 1.35371094 3.09929687 1.26992187 2.15234375 1.18359375 C1.08693359 1.09271484 1.08693359 1.09271484 0 1 C0 0.67 0 0.34 0 0 Z " fill="#896939" transform="translate(324,81)"/>
<path d="M0 0 C0.66 1.32 1.32 2.64 2 4 C1.67 4.33 1.34 4.66 1 5 C1.66 5.66 2.32 6.32 3 7 C2.01 7 1.02 7 0 7 C-1.6875 5 -1.6875 5 -3 3 C-2.34 3 -1.68 3 -1 3 C-0.67 2.01 -0.34 1.02 0 0 Z " fill="#363125" transform="translate(74,402)"/>
<path d="M0 0 C1.32 0 2.64 0 4 0 C2.86695008 3.39914975 1.87481525 4.05254451 -1 6 C-1.66 5.67 -2.32 5.34 -3 5 C-2.67 4.34 -2.34 3.68 -2 3 C-1.34 3 -0.68 3 0 3 C0 2.01 0 1.02 0 0 Z " fill="#5D492B" transform="translate(348,345)"/>
<path d="M0 0 C0.66 0.33 1.32 0.66 2 1 C0.25 6.75 0.25 6.75 -2 9 C-1.125 1.125 -1.125 1.125 0 0 Z " fill="#4F3A28" transform="translate(395,291)"/>
<path d="M0 0 C0.66 0 1.32 0 2 0 C3.60355101 3.50776784 4.22036864 6.14354879 4 10 C1.16625119 6.79663178 0.4794463 4.21912747 0 0 Z " fill="#907748" transform="translate(71,207)"/>
<path d="M0 0 C2.375 0.3125 2.375 0.3125 5 1 C5.66 1.99 6.32 2.98 7 4 C4.69 3.67 2.38 3.34 0 3 C0 2.01 0 1.02 0 0 Z " fill="#493B28" transform="translate(367,99)"/>
<path d="M0 0 C0.66 0 1.32 0 2 0 C2.33 0.99 2.66 1.98 3 3 C1.68 4.32 0.36 5.64 -1 7 C-1.625 4.625 -1.625 4.625 -2 2 C-1.34 1.34 -0.68 0.68 0 0 Z " fill="#393326" transform="translate(373,322)"/>
</svg>
